<svg xmlns="http://www.w3.org/2000/svg" version="1.1" xmlns:xlink="http://www.w3.org/1999/xlink" xmlns:svgjs="http://svgjs.dev/svgjs" width="1500" height="1500" viewBox="0 0 1500 1500"><rect width="1500" height="1500" fill="#1f2d5a"></rect><g transform="matrix(0.6666666666666666,0,0,0.6666666666666666,249.39393939393938,438.5856950067477)"><svg viewBox="0 0 396 247" data-background-color="#1f2d5a" preserveAspectRatio="xMidYMid meet" height="935" width="1500" xmlns="http://www.w3.org/2000/svg" xmlns:xlink="http://www.w3.org/1999/xlink"><g id="tight-bounds" transform="matrix(1,0,0,1,0.2400000000000091,-0.09999999999999432)"><svg viewBox="0 0 395.52 247.2" height="247.2" width="395.52"><g><svg></svg></g><g><svg viewBox="0 0 395.52 247.2" height="247.2" width="395.52"><g transform="matrix(1,0,0,1,75.54432000000001,84.94961712091735)"><svg viewBox="0 0 244.43135999999996 77.30076575816528" height="77.30076575816528" width="244.43135999999996"><g><svg viewBox="0 0 244.43136 77.3007657581653" height="77.30076575816528" width="244.43135999999996"><g><svg viewBox="0 0 244.43136 77.3007657581653" height="77.3007657581653" width="244.43136"><g id="textblocktransform"><svg viewBox="0 0 244.43136 77.3007657581653" height="77.3007657581653" width="244.43136" id="textblock"><g><svg viewBox="0 0 244.43136 28.543732315676998" height="28.543732315676998" width="244.43136"><g transform="matrix(1,0,0,1,0,0)"><svg width="244.43136" viewBox="2.25 -36.57 319.85 37.35" height="28.543732315676998" data-palette-color="#fbfbfb"><path d="M2.25-0.88L2.25-0.88 2.25-1.81Q2.25-5.98 2.34-14.14 2.44-22.29 2.44-26.46L2.44-26.46 2.44-36.57 30.86-36.57 30.86-28.56Q30.86-28.49 30.86-28.2 30.86-27.91 30.86-27.81 30.86-27.71 30.83-27.45 30.81-27.2 30.75-27.1 30.69-27 30.58-26.82 30.47-26.64 30.32-26.56 30.18-26.49 29.93-26.43 29.69-26.37 29.39-26.37L29.39-26.37 28.71-26.37Q22.39-26.37 17.19-26.56L17.19-26.56Q17.14-26.17 17.03-25.35 16.92-24.54 16.86-23.91 16.8-23.29 16.8-22.71L16.8-22.71 28.42-22.71Q29.15-22.71 29.39-22.51 29.64-22.31 29.64-21.88L29.64-21.88Q29.64-21.75 29.61-21.48 29.59-21.22 29.59-21.09L29.59-21.09Q29.59-19.92 29.66-17.63 29.74-15.33 29.74-14.16L29.74-14.16Q29.66-13.67 29.35-13.67L29.35-13.67Q29.2-13.67 29.1-13.77L29.1-13.77Q21.39-13.38 17.68-13.38L17.68-13.38 17.04-13.38 17.04-9.86Q19.21-9.86 23.33-10.06 27.44-10.25 29.49-10.25L29.49-10.25Q31.1-10.25 31.35-9.57L31.35-9.57 31.35-7.71Q31.35-6.54 31.4-4.25 31.45-1.95 31.45-0.78L31.45-0.78Q31.45 0.44 30.47 0.44L30.47 0.44Q29.2 0.44 26.56 0.42 23.93 0.39 22.56 0.39L22.56 0.39Q19.04 0.39 12.5 0.57 5.96 0.76 3.03 0.78L3.03 0.78 2.34 0Q2.25-0.68 2.25-0.88ZM49.66-0.2L49.66-0.2Q45.58-0.2 42.33-1.57 39.08-2.95 37.01-5.4 34.93-7.84 33.85-11.1 32.76-14.36 32.76-18.21L32.76-18.21 32.76-18.55Q32.79-18.73 32.85-19.4 32.91-20.07 32.92-20.28 32.93-20.48 33.01-21.07 33.08-21.66 33.13-21.92 33.18-22.19 33.26-22.71 33.35-23.22 33.46-23.55 33.57-23.88 33.71-24.34 33.86-24.8 34.03-25.22 34.2-25.63 34.42-26.07L34.42-26.07 34.42-26.03Q35.54-28.37 37.25-30.08 38.96-31.79 41.01-32.73 43.06-33.67 45.21-34.09 47.36-34.52 49.75-34.52L49.75-34.52Q52.78-34.52 55.22-33.92 57.66-33.33 59.27-32.32 60.89-31.32 62.03-29.9 63.18-28.47 63.77-26.95 64.35-25.44 64.6-23.68L64.6-23.68 64.6-21.58Q64.52-21.24 64.23-21.06 63.94-20.87 63.6-20.84 63.25-20.8 62.64-20.8L62.64-20.8 52.19-20.8 52.19-22.9Q52.07-23.73 51.49-24.41 50.9-25.1 50.05-25.1L50.05-25.1Q49.29-25.1 48.72-24.78 48.14-24.46 47.81-23.94 47.48-23.41 47.28-22.72 47.07-22.02 47.01-21.25 46.95-20.48 46.91-19.69 46.87-18.9 46.92-18.19L46.92-18.19Q46.92-17.7 46.92-17.48L46.92-17.48 46.92-14.75Q46.92-14.14 46.98-13.56 47.04-12.99 47.28-12.08 47.51-11.18 48.09-10.62 48.68-10.06 49.56-10.06L49.56-10.06Q50.49-10.06 50.94-10.84 51.39-11.62 51.69-12.72 52-13.82 52.39-14.21L52.39-14.21Q53.37-14.21 55.32-14.18 57.27-14.16 58.25-14.16L58.25-14.16Q58.93-14.16 60.28-14.18 61.62-14.21 62.3-14.21L62.3-14.21 64.11-14.21Q64.91-14.21 64.99-13.23L64.99-13.23 64.99-12.3Q64.45-7.45 61.4-4.47 58.35-1.49 53.76-0.68L53.76-0.68 53.76-0.54Q52.12-0.2 49.66-0.2ZM66.3-16.21L66.3-17.68 66.25-18.21Q66.72-22.19 67.13-23.75L67.13-23.75Q68.09-27.42 70.55-29.88L70.55-29.88 71.14-30.47Q72.31-31.84 74.7-32.81L74.7-32.81 75.63-32.81Q78.02-33.81 83.49-34.67L83.49-34.67Q84.86-34.67 86.36-34.46 87.86-34.25 89.69-33.78 91.52-33.3 93.22-32.26 94.92-31.23 96.04-29.79L96.04-29.79 96.04-29.1Q100.04-24.1 100.04-17.87L100.04-17.87Q100.04-10.86 96.82-6.45L96.82-6.45 95.84-5.22Q94.72-3.83 93.05-2.83 91.38-1.83 89.5-1.31 87.62-0.78 85.9-0.56 84.17-0.34 82.47-0.34L82.47-0.34Q79.95-0.34 77.67-0.94 75.39-1.54 73.4-2.81 71.41-4.08 69.89-5.93 68.38-7.79 67.44-10.41 66.5-13.04 66.3-16.21L66.3-16.21ZM79.73-18.55L79.73-17.48Q79.73-8.89 83-8.89L83-8.89Q83.91-8.89 84.58-9.23 85.25-9.57 85.66-10.28 86.08-10.99 86.35-11.72 86.62-12.45 86.73-13.55 86.84-14.65 86.87-15.48 86.91-16.31 86.91-17.48L86.91-17.48 86.91-18.36Q86.91-19.63 86.76-20.8 86.62-21.97 86.26-23.16 85.91-24.34 85.18-25.06 84.44-25.78 83.39-25.78L83.39-25.78Q79.73-25.78 79.73-18.55L79.73-18.55ZM118.84-33.5L121.33-33.5Q121.5-33.54 121.88-33.58 122.26-33.62 122.36-33.64L122.36-33.64 125.26-18.77 129.07-33.69 146.23-33.69Q146.92-33.69 146.92-30.81L146.92-30.81 146.92-2.05Q146.87-1.66 146.7-1.42 146.53-1.17 146.2-1.09 145.87-1 145.68-0.99 145.5-0.98 145.06-0.98L145.06-0.98Q143.52-0.98 140.39-0.93 137.25-0.88 135.69-0.88L135.69-0.88Q134.47-1.64 134.47-6.49L134.47-6.49Q134.47-7.71 134.51-9.68 134.56-11.65 134.56-12.6L134.56-12.6 134.56-14.75Q134.56-14.92 134.54-15.3 134.51-15.67 134.51-15.87L134.51-15.87Q134.51-16.7 134.61-18.55L134.61-18.55 134.61-16.7Q134.27-15.26 133.29-12.3 132.32-9.35 131.97-7.91L131.97-7.91 130.51-1.66Q130.12-0.98 128.07-0.98L128.07-0.98Q127.07-0.98 125.47-1.03 123.87-1.07 123.04-1.07L123.04-1.07Q122.8-1.07 122.21-1.05 121.62-1.03 121.48-1.03L121.48-1.03Q120.7-1.03 120.35-1.22 120.01-1.42 119.87-2L119.87-2Q117.57-12.18 116.69-16.41L116.69-16.41 115.81-20.61Q115.47-13.5 115.47-5.57L115.47-5.57 115.47-1.27 103.95-1.27Q103.95-1.42 104.02-1.9 104.09-2.39 104.09-2.44L104.09-2.44Q103.9-7.13 103.9-14.01L103.9-14.01Q103.9-16.09 103.87-19.54 103.85-23 103.85-24.32L103.85-24.32 103.85-32.96Q103.85-33.28 103.95-33.44 104.05-33.59 104.44-33.89L104.44-33.89 106.68-33.89Q107.9-33.89 108.44-33.94L108.44-33.94Q110.91-33.94 114.43-33.72 117.96-33.5 118.84-33.5L118.84-33.5ZM134.61-18.75L134.61-18.7 134.61-18.75ZM166.98-33.5L169.47-33.5Q169.64-33.54 170.02-33.58 170.4-33.62 170.5-33.64L170.5-33.64 173.4-18.77 177.21-33.69 194.37-33.69Q195.06-33.69 195.06-30.81L195.06-30.81 195.06-2.05Q195.01-1.66 194.84-1.42 194.67-1.17 194.34-1.09 194.01-1 193.83-0.99 193.64-0.98 193.2-0.98L193.2-0.98Q191.66-0.98 188.53-0.93 185.39-0.88 183.83-0.88L183.83-0.88Q182.61-1.64 182.61-6.49L182.61-6.49Q182.61-7.71 182.66-9.68 182.7-11.65 182.7-12.6L182.7-12.6 182.7-14.75Q182.7-14.92 182.68-15.3 182.66-15.67 182.66-15.87L182.66-15.87Q182.66-16.7 182.75-18.55L182.75-18.55 182.75-16.7Q182.41-15.26 181.44-12.3 180.46-9.35 180.12-7.91L180.12-7.91 178.65-1.66Q178.26-0.98 176.21-0.98L176.21-0.98Q175.21-0.98 173.61-1.03 172.01-1.07 171.18-1.07L171.18-1.07Q170.94-1.07 170.35-1.05 169.77-1.03 169.62-1.03L169.62-1.03Q168.84-1.03 168.5-1.22 168.15-1.42 168.01-2L168.01-2Q165.71-12.18 164.83-16.41L164.83-16.41 163.95-20.61Q163.61-13.5 163.61-5.57L163.61-5.57 163.61-1.27 152.09-1.27Q152.09-1.42 152.16-1.9 152.24-2.39 152.24-2.44L152.24-2.44Q152.04-7.13 152.04-14.01L152.04-14.01Q152.04-16.09 152.02-19.54 151.99-23 151.99-24.32L151.99-24.32 151.99-32.96Q151.99-33.28 152.09-33.44 152.19-33.59 152.58-33.89L152.58-33.89 154.82-33.89Q156.04-33.89 156.58-33.94L156.58-33.94Q159.05-33.94 162.58-33.72 166.1-33.5 166.98-33.5L166.98-33.5ZM182.75-18.75L182.75-18.7 182.75-18.75ZM199.65-1.81L199.65-31.54Q199.65-33.01 199.77-33.25L199.77-33.25Q199.99-33.59 200.48-33.59L200.48-33.59 201.06-33.59Q201.45-33.59 201.6-33.54L201.6-33.54 202.87-33.54Q205.33-33.54 210.33-33.67 215.32-33.79 217.81-33.79L217.81-33.79 224.3-33.79Q224.94-33.72 224.94-33.15L224.94-33.15 224.94-25Q224.91-24.85 224.85-24.74 224.79-24.63 224.76-24.6 224.72-24.56 224.52-24.43 224.33-24.29 224.26-24.22L224.26-24.22 212.93-24.22 212.93-21.19 214-21.19Q215.42-21.19 218.32-21.29 221.23-21.39 222.79-21.39L222.79-21.39Q223.47-21.39 223.72-21.12 223.96-20.85 223.96-20.36L223.96-20.36Q223.96-20.24 223.91-19.95 223.86-19.65 223.86-19.53L223.86-19.53 223.86-18.6Q223.86-18.51 223.89-18.2 223.91-17.9 223.91-17.68L223.91-17.68 223.91-16.99Q223.91-16.46 223.96-15.92 224.01-15.38 224.01-14.99L224.01-14.99 224.01-14.36Q223.89-14.06 223.82-13.96 223.74-13.87 223.57-13.87L223.57-13.87 223.57-13.92Q222.67-13.92 220.46-13.79 218.25-13.67 216.93-13.67L216.93-13.67 213.02-13.67 213.02-10.55Q213.22-10.55 213.61-10.52 214-10.5 214.2-10.5L214.2-10.5Q215.3-10.5 217.44-10.57 219.59-10.64 220.54-10.64L220.54-10.64 223.67-10.64Q224.94-10.64 225.28-10.35L225.28-10.35Q225.4-10.21 225.48-10.06L225.48-10.06 225.48-2.25Q225.48-1.73 225.28-1.46 225.09-1.2 224.55-1.17L224.55-1.17 200.38-1.17 199.65-1.81ZM228.31-0.98L228.31-33.59 232.85-33.59Q234.95-33.59 239.56-33.69 244.17-33.79 246.47-33.79L246.47-33.79Q248.45-33.79 250.17-33.57 251.89-33.35 253.56-32.76 255.23-32.18 256.42-31.27 257.6-30.37 258.33-28.89 259.07-27.42 259.07-25.49L259.07-25.49Q259.07-22.83 257.82-20.95 256.58-19.07 253.99-17.77L253.99-17.77Q255.01-17.33 255.77-16.63 256.53-15.92 256.93-15.41 257.33-14.89 257.71-13.68 258.09-12.48 258.16-12.1 258.24-11.72 258.48-10.23L258.48-10.23Q258.55-9.89 258.58-9.72L258.58-9.72Q258.68-8.74 259.41-6.14 260.14-3.54 260.14-2.15L260.14-2.15Q260.14-1.27 259.6-1.27L259.6-1.27Q258.14-1.27 255.17-1.25 252.21-1.22 250.77-1.22L250.77-1.22Q250.18-1.27 249.01-1.27L249.01-1.27 247.35-1.27Q246.86-1.42 246.4-2.78 245.93-4.15 245.74-5.86L245.74-5.86 245.2-10.21Q245.05-10.74 244.97-10.97 244.88-11.21 244.66-11.54 244.44-11.87 244.06-11.99 243.69-12.11 243.1-12.11L243.1-12.11 241.98-12.11 241.98-2.34Q241.98-2.27 241.98-2.11 241.98-1.95 241.98-1.89 241.98-1.83 241.98-1.71 241.98-1.59 241.95-1.53 241.93-1.46 241.9-1.37 241.88-1.27 241.84-1.23 241.81-1.2 241.75-1.14 241.68-1.07 241.6-1.05 241.51-1.03 241.4-1 241.29-0.98 241.15-0.98L241.15-0.98 228.31-0.98ZM242.12-20.7L242.12-20.7Q242.17-20.65 242.27-20.5 242.37-20.34 242.47-20.24 242.56-20.14 242.66-20.12L242.66-20.12Q243.39-20.12 244.13-20.28 244.86-20.43 245.63-20.8 246.4-21.17 246.87-21.92 247.35-22.68 247.35-23.73L247.35-23.73Q247.35-26.27 242.47-26.27L242.47-26.27Q241.98-26.15 241.98-25.88L241.98-25.88 241.98-24.95Q241.98-24.24 242.05-22.83 242.12-21.41 242.12-20.7ZM278.06-0.2L278.06-0.2Q273.98-0.2 270.73-1.57 267.49-2.95 265.41-5.4 263.34-7.84 262.25-11.1 261.16-14.36 261.16-18.21L261.16-18.21 261.16-18.55Q261.19-18.73 261.25-19.4 261.31-20.07 261.32-20.28 261.34-20.48 261.41-21.07 261.48-21.66 261.53-21.92 261.58-22.19 261.66-22.71 261.75-23.22 261.86-23.55 261.97-23.88 262.12-24.34 262.26-24.8 262.43-25.22 262.6-25.63 262.82-26.07L262.82-26.07 262.82-26.03Q263.95-28.37 265.66-30.08 267.37-31.79 269.42-32.73 271.47-33.67 273.62-34.09 275.76-34.52 278.16-34.52L278.16-34.52Q281.18-34.52 283.63-33.92 286.07-33.33 287.68-32.32 289.29-31.32 290.44-29.9 291.58-28.47 292.17-26.95 292.76-25.44 293-23.68L293-23.68 293-21.58Q292.93-21.24 292.63-21.06 292.34-20.87 292-20.84 291.66-20.8 291.05-20.8L291.05-20.8 280.6-20.8 280.6-22.9Q280.48-23.73 279.89-24.41 279.3-25.1 278.45-25.1L278.45-25.1Q277.69-25.1 277.12-24.78 276.55-24.46 276.22-23.94 275.89-23.41 275.68-22.72 275.47-22.02 275.41-21.25 275.35-20.48 275.31-19.69 275.28-18.9 275.32-18.19L275.32-18.19Q275.32-17.7 275.32-17.48L275.32-17.48 275.32-14.75Q275.32-14.14 275.39-13.56 275.45-12.99 275.68-12.08 275.91-11.18 276.5-10.62 277.08-10.06 277.96-10.06L277.96-10.06Q278.89-10.06 279.34-10.84 279.79-11.62 280.1-12.72 280.4-13.82 280.79-14.21L280.79-14.21Q281.77-14.21 283.72-14.18 285.68-14.16 286.65-14.16L286.65-14.16Q287.34-14.16 288.68-14.18 290.02-14.21 290.71-14.21L290.71-14.21 292.51-14.21Q293.32-14.21 293.39-13.23L293.39-13.23 293.39-12.3Q292.85-7.45 289.8-4.47 286.75-1.49 282.16-0.68L282.16-0.68 282.16-0.54Q280.52-0.2 278.06-0.2ZM296.27-1.81L296.27-31.54Q296.27-33.01 296.39-33.25L296.39-33.25Q296.61-33.59 297.1-33.59L297.1-33.59 297.69-33.59Q298.08-33.59 298.22-33.54L298.22-33.54 299.49-33.54Q301.96-33.54 306.95-33.67 311.94-33.79 314.43-33.79L314.43-33.79 320.93-33.79Q321.56-33.72 321.56-33.15L321.56-33.15 321.56-25Q321.54-24.85 321.48-24.74 321.42-24.63 321.38-24.6 321.34-24.56 321.15-24.43 320.95-24.29 320.88-24.22L320.88-24.22 309.55-24.22 309.55-21.19 310.62-21.19Q312.04-21.19 314.95-21.29 317.85-21.39 319.41-21.39L319.41-21.39Q320.1-21.39 320.34-21.12 320.59-20.85 320.59-20.36L320.59-20.36Q320.59-20.24 320.54-19.95 320.49-19.65 320.49-19.53L320.49-19.53 320.49-18.6Q320.49-18.51 320.51-18.2 320.54-17.9 320.54-17.68L320.54-17.68 320.54-16.99Q320.54-16.46 320.59-15.92 320.63-15.38 320.63-14.99L320.63-14.99 320.63-14.36Q320.51-14.06 320.44-13.96 320.37-13.87 320.19-13.87L320.19-13.87 320.19-13.92Q319.29-13.92 317.08-13.79 314.87-13.67 313.55-13.67L313.55-13.67 309.65-13.67 309.65-10.55Q309.84-10.55 310.23-10.52 310.62-10.5 310.82-10.5L310.82-10.5Q311.92-10.5 314.07-10.57 316.22-10.64 317.17-10.64L317.17-10.64 320.29-10.64Q321.56-10.64 321.9-10.35L321.9-10.35Q322.03-10.21 322.1-10.06L322.1-10.06 322.1-2.25Q322.1-1.73 321.9-1.46 321.71-1.2 321.17-1.17L321.17-1.17 297-1.17 296.27-1.81Z" opacity="1" transform="matrix(1,0,0,1,0,0)" fill="#fbfbfb" class="wordmark-text-0" data-fill-palette-color="primary" id="text-0"></path></svg></g></svg></g><g transform="matrix(1,0,0,1,0,42.02071261598852)"><svg viewBox="0 0 244.43136 35.280053142176776" height="35.280053142176776" width="244.43136"><path d="M244.431 0l-5.88 17.64 5.88 17.64h-244.431l5.88-17.64-5.88-17.64z" data-fill-palette-color="tertiary" opacity="1" fill="#fbfbfb"></path><g transform="matrix(1,0,0,1,47.638522566508584,6.738490150155763)"><svg width="149.15431486698284" viewBox="1.83 -39.06 280.40000000000003 40.99" height="21.803072841865248" data-palette-color="#1f2d5a"><path d="M10.99 0.49L10.99 0.49Q9.38 0.49 8.13-0.29L8.13-0.29Q6.88 0.49 5.82 0.49 4.76 0.49 4.08 0.31 3.39 0.12 2.88-0.2L2.88-0.2Q1.83-0.83 1.83-1.78L1.83-1.78Q1.83-2.27 2.1-2.64L2.1-2.64Q2.64-2.22 3.47-2.22L3.47-2.22Q5.64-2.22 6.47-4.08L6.47-4.08 6.47-16.02Q6.47-17.14 6.01-17.68L6.01-17.68Q5.27-18.58 3.49-19.46L3.49-19.46Q5.15-20.21 5.64-20.8L5.64-20.8Q6.47-21.75 6.47-22.95L6.47-22.95 6.47-33.25Q5.64-35.13 3.47-35.13L3.47-35.13Q2.64-35.13 2.1-34.72L2.1-34.72Q1.83-35.08 1.83-35.56 1.83-36.04 2.11-36.45 2.39-36.87 2.88-37.16L2.88-37.16Q4-37.84 5.46-37.84 6.91-37.84 8.13-37.04L8.13-37.04Q9.4-37.84 11.04-37.84 12.67-37.84 14.01-36.89L14.01-36.89Q16.6-37.84 20-37.84L20-37.84Q22.51-37.84 24.29-37.35L24.29-37.35 26.46-36.77Q26.86-36.67 27.22-36.67L27.22-36.67Q27.91-36.67 27.91-37.65L27.91-37.65Q27.91-37.89 27.73-38.48L27.73-38.48Q28.42-38.6 29.47-38.6 30.52-38.6 31.25-37.9 31.98-37.21 31.98-35.9 31.98-34.59 31.52-33.98L31.52-33.98Q32.18-33.01 32.18-31.6 32.18-30.2 31.23-29.25L31.23-29.25Q31.52-28.52 31.52-27.82 31.52-27.12 31.29-26.55 31.05-25.98 30.71-25.59L30.71-25.59Q30.03-24.88 29.32-24.88L29.32-24.88Q28.3-24.88 27.47-25.32L27.47-25.32Q27.76-25.9 27.76-27.05L27.76-27.05Q27.76-29.74 26.42-31.76L26.42-31.76Q24.58-34.55 20.92-34.55L20.92-34.55Q19.07-34.55 17.57-33.64 16.06-32.74 15.45-31.05L15.45-31.05 15.45-21.61Q16.31-21.07 17.05-21.07 17.8-21.07 18.18-21.09 18.55-21.12 18.95-21.19L18.95-21.19Q19.95-21.34 20.48-21.58L20.48-21.58Q21.51-22.07 21.51-23.97L21.51-23.97Q21.51-25.05 21-25.63L21-25.63Q21.48-25.98 22.22-25.98L22.22-25.98Q23.85-25.98 24.58-24.66L24.58-24.66Q24.85-24.19 24.85-23.63 24.85-23.07 24.56-22.24L24.56-22.24Q25.56-21.09 25.56-19.52 25.56-17.94 24.56-16.8L24.56-16.8Q24.85-15.97 24.85-15.3 24.85-14.62 24.58-14.01 24.32-13.4 23.93-13.04L23.93-13.04Q23.17-12.35 22.22-12.35L22.22-12.35Q21.53-12.35 21-12.74L21-12.74Q21.51-13.6 21.51-14.75L21.51-14.75Q21.51-17.02 20.26-17.55L20.26-17.55Q19.17-17.99 17.75-17.99 16.33-17.99 15.45-17.48L15.45-17.48 15.45-5.27Q16.87-2.78 20.92-2.78L20.92-2.78Q25.51-2.78 27.17-5.62L27.17-5.62Q29.1-8.86 29.1-12.57L29.1-12.57Q29.1-13.65 28.91-14.23L28.91-14.23Q29.52-14.84 30.18-14.84 30.83-14.84 31.18-14.66 31.52-14.48 31.79-14.21L31.79-14.21Q32.37-13.55 32.37-12.87L32.37-12.87 32.23-11.67Q32.23-11.21 32.47-10.91L32.47-10.91Q32.96-10.4 32.96-9.95 32.96-9.5 32.67-8.86L32.67-8.86Q33.23-8.54 33.68-7.92 34.13-7.3 34.13-6.64L34.13-6.64Q34.13-5.25 32.96-4.15L32.96-4.15Q33.47-3.42 33.47-2.04 33.47-0.66 32.68 0.31 31.88 1.27 30.62 1.27L30.62 1.27Q29.93 1.27 29.2 1.12L29.2 1.12Q29.3 0.59 29.3 0.05L29.3 0.05Q29.3-1.07 28.27-1.07L28.27-1.07Q27.12-1.07 25.98-0.61L25.98-0.61Q23.27 0.49 19.81 0.49 16.36 0.49 13.94-0.42L13.94-0.42Q12.67 0.49 10.99 0.49ZM8.81-9.64L8.81-6.47Q10.03-6.93 10.16-9.67L10.16-9.67Q10.3-12.4 10.3-17.24 10.3-22.07 10.29-23.67 10.28-25.27 10.25-26.25L10.25-26.25Q10.18-29.13 9.7-29.72 9.23-30.32 8.81-30.52L8.81-30.52Q8.81-22.02 8.52-20.85L8.52-20.85Q8.18-19.87 6.86-19.46L6.86-19.46Q8.33-18.95 8.52-18.21L8.52-18.21Q8.81-17.04 8.81-9.64L8.81-9.64ZM14.99-6.59L14.97-6.71Q14.97-6.64 14.99-6.59L14.99-6.59ZM57.76-7.37L57.76-7.37Q58.3-8.4 59.74-8.4L59.74-8.4Q60.72-8.4 61.25-7.59L61.25-7.59Q61.69-6.96 61.69-6.04 61.69-5.13 61.24-4.2 60.79-3.27 60.03-2.51 59.27-1.76 58.29-1.17 57.3-0.59 56.17-0.2L56.17-0.2Q53.9 0.61 51.44 0.61 48.97 0.61 46.77-0.26 44.58-1.12 42.99-2.69L42.99-2.69Q39.79-5.83 39.13-11.13L39.13-11.13Q38.96-12.33 38.57-12.84L38.57-12.84Q37.84-13.75 36.15-14.58L36.15-14.58Q38.74-15.75 39.13-18.8L39.13-18.8Q39.77-23.46 43.28-26.17L43.28-26.17Q46.65-28.81 51.49-28.81L51.49-28.81Q55.66-28.81 58.52-26.27L58.52-26.27Q61.23-23.88 61.23-20.73L61.23-20.73Q61.23-18.95 62.47-18.46L62.47-18.46Q61.74-17.26 60.42-17.26L60.42-17.26Q59.96-17.26 59.57-17.36L59.57-17.36Q58.71-16.11 57.1-15.67L57.1-15.67Q56.59-15.55 56.13-15.55 55.66-15.55 55.03-15.73 54.39-15.92 54.15-16.24L54.15-16.24Q54.86-16.53 54.98-17.7L54.98-17.7Q54.83-17.68 54.71-17.68L54.71-17.68 54.51-17.68Q52.85-17.68 52.46-19.58L52.46-19.58Q54.27-19.58 55.1-20.97L55.1-20.97Q55.39-21.46 55.39-22.17L55.39-22.17Q55.39-23.73 54.39-24.62 53.39-25.51 51.61-25.51L51.61-25.51Q47.48-25.51 47.48-20.19L47.48-20.19 47.48-8.33Q47.48-4.17 50.66-3.08L50.66-3.08Q51.58-2.73 52.76-2.73 53.93-2.73 54.89-3.03 55.86-3.32 56.52-3.83L56.52-3.83Q57.86-4.88 57.86-6.49L57.86-6.49Q57.86-6.98 57.76-7.37ZM43.41-6.47L43.41-6.47Q43.75-6.74 43.75-7.08L43.75-7.08Q43.75-7.62 43.53-8.45L43.53-8.45Q42.53-12.28 42.53-13.78 42.53-15.28 42.62-16.13 42.72-16.97 42.89-17.82L42.89-17.82Q43.19-19.48 43.53-20.75L43.53-20.75Q43.75-21.58 43.75-21.88L43.75-21.88Q43.75-22.46 43.41-22.73L43.41-22.73Q42.38-21.51 41.84-19.46 41.31-17.41 40.96-15.84L40.96-15.84Q40.84-15.21 39.52-14.6L39.52-14.6Q40.84-13.99 40.96-13.35L40.96-13.35Q41.87-9.23 42.45-8.11 43.04-6.98 43.41-6.47ZM70.11-2.73Q68.57-4.3 67.68-6.45 66.79-8.59 66.6-10.13 66.4-11.67 66.27-12.11 66.13-12.55 65.82-12.94L65.82-12.94Q65.18-13.75 63.5-14.58L63.5-14.58Q65.62-15.53 66.21-17.63L66.21-17.63Q66.38-18.21 66.47-18.8L66.47-18.8Q67.11-23.17 70.7-26.11 74.29-29.05 79.07-29.05L79.07-29.05Q84.05-29.05 87.64-26.07L87.64-26.07Q91.13-23.17 91.77-18.8L91.77-18.8Q91.99-17.26 92.43-16.55L92.43-16.55Q93.26-15.26 94.75-14.58L94.75-14.58Q93.09-13.77 92.6-13.16L92.6-13.16Q91.94-12.3 91.77-11.13L91.77-11.13Q90.99-5.37 87.76-2.38 84.54 0.61 79.17 0.61L79.17 0.61Q73.41 0.61 70.11-2.73L70.11-2.73ZM83.27-19.51Q83.27-25.61 79.12-25.61 74.97-25.61 74.97-19.51L74.97-19.51 74.97-8.69Q74.97-2.83 79.1-2.83L79.1-2.83Q83.27-2.83 83.27-8.69L83.27-8.69 83.27-19.51ZM85.62-22.73L85.62-6.47Q86.84-6.93 86.96-9.67L86.96-9.67Q87.1-12.4 87.1-13.73 87.1-15.06 87.09-15.95 87.08-16.85 87.06-17.8L87.06-17.8Q86.96-21.36 86.49-21.95 86.03-22.53 85.62-22.73L85.62-22.73ZM70.99-6.47L70.99-6.47Q71.33-6.74 71.33-7.08L71.33-7.08Q71.33-7.62 71.11-8.45L71.11-8.45Q70.11-12.28 70.11-13.78 70.11-15.28 70.21-16.13 70.31-16.97 70.45-17.82L70.45-17.82Q70.77-19.48 71.11-20.75L71.11-20.75Q71.33-21.58 71.33-21.88L71.33-21.88Q71.33-22.46 70.99-22.73L70.99-22.73Q69.97-21.51 69.43-19.46 68.89-17.41 68.55-15.84L68.55-15.84Q68.43-15.19 67.11-14.58L67.11-14.58Q68.43-13.96 68.55-13.35L68.55-13.35Q69.45-9.23 70.04-8.11 70.62-6.98 70.99-6.47ZM102.95-0.29L102.95-0.29Q101.82 0.49 100.38 0.49 98.94 0.49 98.3-0.18 97.65-0.85 97.65-1.46L97.65-1.46Q97.65-2.27 97.92-2.64L97.92-2.64Q98.45-2.22 99.28-2.22L99.28-2.22Q100.85-2.22 101.31-3.74L101.31-3.74 101.31-11.35Q101.31-12.43 100.85-12.92L100.85-12.92Q100.19-13.67 98.33-14.58L98.33-14.58Q100.04-15.36 100.51-15.82L100.51-15.82Q101.31-16.63 101.31-17.8L101.31-17.8 101.31-21.36Q101.31-23.44 99.89-23.61L99.89-23.61Q99.48-23.66 98.85-23.66 98.21-23.66 97.67-23.24L97.67-23.24Q97.33-23.71 97.33-24.21 97.33-24.71 97.59-25.33 97.84-25.95 98.36-26.51L98.36-26.51Q99.65-27.83 101.35-27.83 103.04-27.83 104.17-27.29L104.17-27.29Q105.51-28.81 107.05-28.81L107.05-28.81Q109.56-28.81 109.56-26.17L109.56-26.17 109.54-24.15Q111.59-27.42 115.25-28.47L115.25-28.47Q116.45-28.81 117.72-28.81L117.72-28.81Q120.6-28.81 122.5-27.42 124.41-26.03 125.24-23.46L125.24-23.46Q127.07-27.25 131.17-28.42L131.17-28.42Q132.51-28.81 134.21-28.81 135.91-28.81 137.41-28.16 138.91-27.51 139.96-26.32L139.96-26.32Q142.08-23.83 142.08-19.43L142.08-19.43 142.01-17.8Q142.01-16.63 142.52-16.11L142.52-16.11Q143.28-15.36 144.99-14.58L144.99-14.58Q143.13-13.67 142.69-13.18L142.69-13.18Q142.01-12.43 142.01-11.35L142.01-11.35 142.01-3.74Q142.47-2.22 144.04-2.22L144.04-2.22Q144.62-2.22 145.16-2.64L145.16-2.64Q145.31-2.44 145.49-2.26 145.67-2.08 145.67-1.46 145.67-0.85 145.02-0.18 144.38 0.49 142.97 0.49 141.57 0.49 140.37-0.29L140.37-0.29Q139.27 0.49 137.92 0.49 136.56 0.49 135.54-0.24L135.54-0.24Q134.59 0.49 133.4 0.49 132.22 0.49 131.51-0.12 130.8-0.73 130.8-1.88L130.8-1.88Q130.8-2.42 131.17-2.73L131.17-2.73Q131.73-2.29 132.29-2.29L132.29-2.29Q133.37-2.29 133.83-3.49L133.83-3.49 133.83-18.04Q133.83-23.78 129.66-23.78L129.66-23.78Q128.46-23.78 127.31-22.39L127.31-22.39Q126.16-21.02 125.82-19.07L125.82-19.07 125.75-3.49Q126.21-2.29 127.29-2.29L127.29-2.29Q127.85-2.29 128.41-2.73L128.41-2.73Q128.78-2.42 128.78-1.57 128.78-0.73 128.07-0.12 127.36 0.49 126.16 0.49 124.97 0.49 124.02-0.24L124.02-0.24Q122.97 0.49 121.64 0.49 120.31 0.49 119.28-0.24L119.28-0.24Q118.33 0.49 117.14 0.49 115.96 0.49 115.25-0.12 114.54-0.73 114.54-1.88L114.54-1.88Q114.54-2.42 114.91-2.73L114.91-2.73Q115.47-2.29 116.03-2.29L116.03-2.29Q117.11-2.29 117.57-3.49L117.57-3.49 117.57-18.04Q117.57-22.61 115.35-23.49L115.35-23.49Q114.64-23.78 113.79-23.78L113.79-23.78Q112.15-23.78 110.95-22.36L110.95-22.36Q109.83-21.04 109.54-19.04L109.54-19.04 109.49-3.49Q109.95-2.29 111.03-2.29L111.03-2.29Q111.59-2.29 112.15-2.73L112.15-2.73Q112.59-2.37 112.59-1.55 112.59-0.73 111.85-0.12 111.1 0.49 109.89 0.49 108.68 0.49 107.76-0.22L107.76-0.22Q106.78 0.49 105.44 0.49 104.09 0.49 102.95-0.29ZM135.44-22.73L135.44-22.73Q136.17-20.95 136.17-15.77L136.17-15.77 136.17-6.47Q137.39-6.93 137.52-9.67L137.52-9.67Q137.66-12.4 137.66-14.51 137.66-16.63 137.54-18.04 137.42-19.46 137.15-20.41L137.15-20.41Q136.66-22.12 135.44-22.73ZM119.18-22.73L119.18-22.73Q119.91-20.95 119.91-15.77L119.91-15.77 119.91-6.47Q121.14-6.93 121.26-9.67L121.26-9.67Q121.4-12.4 121.4-14.51 121.4-16.63 121.28-18.04 121.16-19.46 120.89-20.41L120.89-20.41Q120.4-22.12 119.18-22.73ZM103.65-8.06L103.65-6.47Q104.8-7.2 104.95-9.52L104.95-9.52Q105.05-11.28 105.05-12.67L105.05-12.67 105.05-15.77Q105.05-19.38 104.85-20.41L104.85-20.41Q104.51-22.17 103.65-22.73L103.65-22.73 103.65-21.14Q103.65-17.02 103.47-16.3 103.29-15.58 102.89-15.21 102.48-14.84 101.7-14.58L101.7-14.58Q103.17-14.06 103.36-13.35L103.36-13.35Q103.65-12.18 103.65-8.06L103.65-8.06ZM160.59-12.82L149.28-12.82Q149.09-13.16 149.09-13.96 149.09-14.77 149.88-15.58 150.67-16.38 152.24-16.38L152.24-16.38 163.54-16.38Q163.74-16.04 163.74-15.23 163.74-14.43 162.94-13.62 162.15-12.82 160.59-12.82L160.59-12.82ZM212.71-21.48L212.71-21.48Q212.71-20.17 215.08-19.46L215.08-19.46Q213.07-18.65 212.29-17.94L212.29-17.94Q210.8-16.55 209.95-14.33L209.95-14.33 205.7-2.12Q204.33 1.34 203.63 1.78L203.63 1.78Q203.41 1.93 203.11 1.93 202.82 1.93 202.62 1.76L202.62 1.76 194.3-22.44 186.66-2.12Q185.29 1.29 184.58 1.78L184.58 1.78Q184.36 1.93 184.07 1.93 183.78 1.93 183.58 1.76L183.58 1.76 175.7-15.99Q175.11-17.38 174.45-17.97L174.45-17.97Q173.43-18.85 171.76-19.46L171.76-19.46Q173.86-20.65 173.82-21.68L173.82-21.68Q173.82-22.34 173.33-23.51L173.33-23.51 172.64-25.17 169.32-34.13Q168.05-35.01 167.11-35.01 166.17-35.01 165.56-34.59L165.56-34.59Q165.3-34.79 165.3-35.33 165.3-35.86 165.47-36.32 165.64-36.77 166-37.11L166-37.11Q166.78-37.84 168.27-37.84 169.76-37.84 170.91-36.99L170.91-36.99Q172.13-37.84 173.8-37.84 175.48-37.84 176.55-37.01L176.55-37.01Q177.84-37.84 178.97-37.84 180.09-37.84 180.77-37.68 181.46-37.52 181.97-37.21L181.97-37.21Q183.07-36.57 183.12-35.45L183.12-35.45Q183.12-34.77 182.85-34.59L182.85-34.59Q182.19-35.01 181.51-35.01L181.51-35.01Q179.97-35.01 179.11-34.42L179.11-34.42 187.05-12.26 192.44-27.81 190.27-34.16Q189.03-35.01 188.1-35.01 187.17-35.01 186.56-34.59L186.56-34.59Q186.29-34.79 186.29-35.33 186.29-35.86 186.46-36.32 186.63-36.77 187-37.11L187-37.11Q187.78-37.84 189.27-37.84 190.76-37.84 191.91-36.99L191.91-36.99Q193.13-37.84 194.8-37.84 196.47-37.84 197.55-37.01L197.55-37.01Q198.84-37.84 199.96-37.84 201.09-37.84 201.77-37.68 202.45-37.52 202.97-37.21L202.97-37.21Q204.06-36.57 204.11-35.45L204.11-35.45Q204.11-34.77 203.84-34.59L203.84-34.59Q203.19-35.01 202.5-35.01L202.5-35.01Q200.92-35.01 200.09-34.4L200.09-34.4 206.6-13.96 213.2-34.35Q212.41-35.13 210.95-35.13 209.48-35.13 208.78-34.72L208.78-34.72Q208.53-35.08 208.53-35.86 208.53-36.65 209.19-37.24 209.85-37.84 211.07-37.84 212.29-37.84 213.17-37.21L213.17-37.21Q213.95-37.84 215.08-37.84 216.2-37.84 216.96-37.3L216.96-37.3Q218.03-37.84 219.1-37.84 220.18-37.84 220.82-37.15 221.47-36.45 221.47-35.35L221.47-35.35Q221.47-34.79 221.2-34.59L221.2-34.59Q220.57-35.01 219.67-35.01L219.67-35.01Q218.01-35.01 216.86-33.76L216.86-33.76 213.54-24.61Q212.71-22.31 212.71-21.48ZM201.82-12.55L195.08-30.62Q194.71-30.1 194.71-29.08 194.71-28.05 195.13-26.86L195.13-26.86 196.01-24.24 202.62-6.47Q202.75-6.62 202.71-6.98 202.67-7.35 202.67-8.04 202.67-8.74 202.6-9.27 202.53-9.79 202.4-10.35L202.4-10.35Q202.23-11.33 201.82-12.55L201.82-12.55ZM174.67-30.52L174.67-30.52Q174.18-30.22 174.18-29.6 174.18-28.98 174.23-28.66 174.28-28.34 174.43-27.83L174.43-27.83Q174.74-26.54 175.24-25.11 175.74-23.68 175.92-23.08 176.09-22.49 176.17-22.07 176.26-21.66 176.28-21.39 176.31-21.12 176.33-20.8L176.33-20.8Q176.38-20.14 174.82-19.51L174.82-19.51Q175.82-19.31 176.39-19.17 176.97-19.02 177.21-18.62 177.45-18.21 177.9-17.29 178.36-16.36 178.87-15.19L178.87-15.19 179.92-12.7Q180.46-11.4 180.86-10.3 181.26-9.2 181.62-8.51 181.97-7.81 182.29-7.37L182.29-7.37Q182.9-6.62 183.7-6.47L183.7-6.47Q182.36-9.77 181.18-12.98 179.99-16.19 178.77-19.18 177.55-22.17 176.64-25 175.72-27.83 174.67-30.52ZM243.22-7.37L243.22-7.37Q243.76-8.4 245.2-8.4L245.2-8.4Q246.18-8.4 246.71-7.59L246.71-7.59Q247.15-6.96 247.15-6.04 247.15-5.13 246.69-4.2 246.23-3.27 245.42-2.51 244.61-1.76 243.58-1.17 242.54-0.59 241.37-0.2L241.37-0.2Q238.95 0.61 236.34 0.61 233.73 0.61 231.44-0.26 229.16-1.12 227.52-2.69L227.52-2.69Q224.33-5.76 223.62-11.13L223.62-11.13Q223.45-12.33 223.06-12.84L223.06-12.84Q222.32-13.75 220.64-14.58L220.64-14.58Q222.76-15.53 223.35-17.63L223.35-17.63Q223.52-18.21 223.62-18.8L223.62-18.8Q224.23-23.1 227.96-26.12L227.96-26.12Q231.58-29.05 236.04-29.05L236.04-29.05Q240.68-29.05 244.08-25.78L244.08-25.78Q247.59-22.41 247.59-17.5L247.59-17.5Q247.59-17.33 247.58-17.16 247.57-16.99 247.59-16.85L247.59-16.85Q247.64-16.53 247.98-16.48L247.98-16.48Q248.42-15.92 248.42-15.28L248.42-15.28Q248.42-13.82 246.86-13.55L246.86-13.55Q246.47-13.48 245.64-13.35L245.64-13.35 231.87-11.16 231.87-8.81Q231.87-5.98 233.58-4.32L233.58-4.32Q235.19-2.73 237.66-2.73L237.66-2.73Q240.27-2.73 241.86-3.81L241.86-3.81Q243.34-4.83 243.34-6.49L243.34-6.49Q243.34-6.88 243.22-7.37ZM231.87-14.11L238.95-15.26 238.95-22.09Q238.95-23.71 238.32-24.46L238.32-24.46Q237.19-25.76 236.09-25.76 234.99-25.76 234.26-25.43 233.53-25.1 232.99-24.39L232.99-24.39Q231.87-22.9 231.87-19.75L231.87-19.75 231.87-14.11ZM241.05-15.63L242.56-15.87 242.56-16.63Q242.56-21.17 241.81-22.12L241.81-22.12Q241.46-22.53 241.05-22.73L241.05-22.73 241.05-15.63ZM227.89-6.47L227.89-6.47Q228.23-6.74 228.23-7.08L228.23-7.08Q228.23-7.62 228.01-8.45L228.01-8.45Q227.01-12.28 227.01-13.78 227.01-15.28 227.11-16.13 227.21-16.97 227.38-17.82L227.38-17.82Q227.67-19.48 228.01-20.75L228.01-20.75Q228.23-21.58 228.23-21.88L228.23-21.88Q228.23-22.46 227.89-22.73L227.89-22.73Q226.86-21.51 226.33-19.46 225.79-17.41 225.45-15.84L225.45-15.84Q225.33-15.19 224.01-14.58L224.01-14.58Q225.33-13.96 225.45-13.35L225.45-13.35Q226.35-9.23 226.94-8.11 227.52-6.98 227.89-6.47ZM262.26-1.71L262.26-1.71Q259.6 0.49 256.84 0.49L256.84 0.49Q254.38 0.49 253.82-0.15L253.82-0.15Q254.35-0.81 254.4-2.12 254.45-3.44 254.45-4.59L254.45-4.59 254.45-11.38Q254.45-12.45 253.99-12.94L253.99-12.94Q253.33-13.7 251.47-14.6L251.47-14.6Q253.18-15.38 253.64-15.84L253.64-15.84Q254.45-16.65 254.45-17.8L254.45-17.8 254.45-31.62Q254.45-34.4 252.18-34.4L252.18-34.4Q251.35-34.4 250.81-33.98L250.81-33.98Q250.47-34.45 250.47-34.95 250.47-35.45 250.73-35.91 250.98-36.38 251.5-36.77L251.5-36.77Q252.67-37.6 254.43-37.6 256.18-37.6 257.18-37.38L257.18-37.38Q258.65-39.06 260.19-39.06L260.19-39.06Q262.7-39.06 262.7-36.43L262.7-36.43 262.7-25.98Q264.58-27.86 267.73-28.59L267.73-28.59Q268.68-28.81 270.2-28.81 271.71-28.81 273.37-28.37 275.03-27.93 276.25-26.81L276.25-26.81Q278.69-24.56 279.25-18.8L279.25-18.8Q279.5-15.8 282.23-14.55L282.23-14.55Q280.5-13.7 280.04-13.11L280.04-13.11Q279.4-12.28 279.25-11.13L279.25-11.13Q278.55-5.25 276.23-2.44L276.23-2.44Q273.69 0.61 268.88 0.61L268.88 0.61Q266.41 0.61 263.8-0.73L263.8-0.73Q262.95-1.15 262.26-1.71ZM260.36-6.47L260.36-30.52Q259.36-30.05 259.14-28.76L259.14-28.76Q258.87-27.15 258.87-23.44L258.87-23.44 258.87-19.68 258.87-18.9Q258.89-17.58 258.92-15.32 258.94-13.06 258.97-11.84L258.97-11.84Q259.02-9.2 259.11-8.5 259.21-7.79 259.57-7.21 259.92-6.64 260.36-6.47L260.36-6.47ZM262.7-19.51L262.7-7.74Q262.7-5.76 264.05-4.35L264.05-4.35Q265.31-2.95 266.93-2.95L266.93-2.95Q271-2.95 271-8.81L271-8.81 271-19.51Q271-24.1 268.88-24.95L268.88-24.95Q268.2-25.24 267.34-25.24L267.34-25.24Q264.22-25.24 263.12-22.24L263.12-22.24Q262.7-21.14 262.7-19.51L262.7-19.51ZM273.35-22.73L273.35-6.47Q274.57-6.93 274.69-9.67L274.69-9.67Q274.84-12.4 274.84-13.73 274.84-15.06 274.82-15.95 274.81-16.85 274.79-17.8L274.79-17.8Q274.69-21.36 274.23-21.95 273.76-22.53 273.35-22.73L273.35-22.73Z" opacity="1" transform="matrix(1,0,0,1,0,0)" fill="#1f2d5a" class="slogan-text-1" data-fill-palette-color="quaternary" id="text-1"></path></svg></g></svg></g></svg></g></svg></g></svg></g></svg></g><g><path d="M245.816 0c68.262 0 123.6 55.338 123.6 123.6 0 68.262-55.338 123.6-123.6 123.6-53.509 0-99.077-34.003-116.274-81.58l1.37 0c17.138 46.853 62.116 80.293 114.904 80.293 67.552 0 122.313-54.761 122.313-122.313 0-67.552-54.761-122.313-122.313-122.313-52.788 0-97.766 33.441-114.904 80.293l-1.37 0c17.197-47.577 62.765-81.58 116.274-81.58z" fill="#fbfbfb" stroke="transparent" data-fill-palette-color="tertiary"></path></g></svg></g><defs></defs></svg><rect width="395.52" height="247.2" fill="none" stroke="none" visibility="hidden"></rect></g></svg></g></svg>